<svg
  viewBox="0 0 210 297"
  xmlns="http://www.w3.org/2000/svg"
  preserveAspectRatio="xMidYMid meet"
>
  <g id="layer1">
    <rect
      style="fill:#ceced0;fill-opacity:1;stroke-width:0.264583;width:600cm;height:600cm;"
      x="-50"
      y="-10"
    />
    <path
      style="fill:#000000;fill-opacity:1"
      d="m 60.802105,206.99037 c -6.755308,-1.50489 -11.026301,-5.25072 -12.166362,-10.67039 -0.781146,-3.71344 -0.276917,-6.90681 1.716652,-10.87182 1.935357,-3.84924 6.699717,-8.0801 11.304955,-10.03907 5.602424,-2.38314 12.182414,-2.707 18.392186,-0.90523 0.43767,0.12699 0.465552,-1.64683 0.529167,-33.66495 l 0.06715,-33.799 0.661458,-0.185 c 0.923581,-0.2583 8.339424,-2.52701 14.948964,-4.57329 3.05594,-0.9461 11.211715,-3.466699 18.123955,-5.601309 6.91224,-2.13462 14.84585,-4.58483 17.63024,-5.444908 2.7844,-0.860074 5.13588,-1.563771 5.22552,-1.563771 0.0896,0 0.16299,19.096428 0.16299,42.436508 0,40.97524 -0.0177,42.52178 -0.51342,44.91302 -0.93718,4.52063 -2.03871,6.73705 -4.76194,9.58169 -2.56263,2.67687 -6.5438,4.45838 -12.47945,5.58435 -6.79326,1.28866 -14.13701,-0.50727 -18.01607,-4.40587 -2.060685,-2.07107 -2.994815,-3.77147 -3.552175,-6.46612 -0.76046,-3.67655 -0.053,-7.38919 2.180015,-11.44066 1.30197,-2.36222 5.14609,-6.10558 8.00486,-7.79504 3.60241,-2.12894 8.86291,-3.62438 12.70252,-3.61104 1.89026,0.007 6.81064,0.65915 7.78778,1.03288 0.40965,0.15668 0.85614,0.28487 0.99218,0.28487 0.15164,0 0.24736,-9.43198 0.24736,-24.37252 0,-23.0848 -0.0245,-24.3657 -0.46302,-24.24324 -0.25466,0.0711 -4.57067,1.4079 -9.59114,2.97065 -5.02047,1.56274 -10.67594,3.31342 -12.56771,3.89039 -3.61392,1.10222 -4.99977,1.53022 -11.244785,3.47287 -2.11006,0.65637 -4.87562,1.50799 -6.14569,1.89247 l -2.309228,0.69907 -0.07316,33.52172 -0.07316,33.52172 -0.592269,2.11667 c -0.910085,3.25248 -2.318969,5.80909 -4.42482,8.02943 -2.44354,2.57639 -5.090037,3.93417 -10.458762,5.36587 -2.741846,0.73118 -8.680754,0.91024 -11.244793,0.33905 z"
    />
  </g>
</svg>